# xmcd CD database file
#
# Track frame offsets:
#	150
#	14747
#	29852
#	42746
#	58269
#	73122
#	88118
#	98108
#	114797
#	130875
#	144420
#	159778
#
# Disc length: 2331 seconds
#
# Revision: 2
# Processed by: cddbd v1.4PL0 Copyright (c) Steve Scherf et al.
# Submitted via: CDex 1.40Release
#
DISCID=ac09190c
DTITLE=Coyote Dax - Necesito Country
DYEAR=2002
DGENRE=Country
TTITLE0=Te Deseo
TTITLE1=Dijo Si
TTITLE2=Necesito Country
TTITLE3=Ese Soy Yo, Extrañandote
TTITLE4=No Lo Hare Mas
TTITLE5=Pequeña Amiga
TTITLE6=Corazon Soñador
TTITLE7=Blues de la Nacional II
TTITLE8=Chu-Chu Train
TTITLE9=Jukebox Junkie
TTITLE10=Yo Quiero Vivir
TTITLE11=Te Solte La Rienda
EXTD=YEAR: 2002 ID3G: 2
EXTT0=
EXTT1=
EXTT2=
EXTT3=
EXTT4=
EXTT5=
EXTT6=
EXTT7=
EXTT8=
EXTT9=
EXTT10=
EXTT11=
PLAYORDER=
